<svg width="461" height="228" viewBox="0 0 461 228" fill="none" xmlns="http://www.w3.org/2000/svg">
<path d="M388.295 148.402L387.446 148.476L397.929 225.068L398.778 224.994L388.295 148.402Z" fill="#292A2E"/>
<path d="M415.446 181.839L410.289 222.63L411.138 222.698L416.295 181.907L415.446 181.839Z" fill="#292A2E"/>
<path d="M424.313 217.699H386.047V227.628H424.313V217.699Z" fill="#292A2E"/>
<path opacity="0.2" d="M424.313 217.699H386.047V227.628H424.313V217.699Z" fill="white"/>
<path d="M447.381 199.417C454.629 191.714 451.174 179.855 439.662 172.93C428.15 166.005 412.941 166.635 405.692 174.338C398.444 182.041 401.899 193.9 413.411 200.825C424.923 207.75 440.132 207.12 447.381 199.417Z" fill="#BD1E51"/>
<path opacity="0.2" d="M447.381 199.417C454.629 191.714 451.174 179.855 439.662 172.93C428.15 166.005 412.941 166.635 405.692 174.338C398.444 182.041 401.899 193.9 413.411 200.825C424.923 207.75 440.132 207.12 447.381 199.417Z" fill="white"/>
<path opacity="0.5" d="M447.38 199.418C446.893 199.938 446.362 200.43 445.79 200.891C437.811 204.967 426.033 204.325 416.689 198.703C405.178 191.779 401.723 179.921 408.973 172.218C409.46 171.7 409.99 171.208 410.559 170.745C418.544 166.666 430.317 167.311 439.664 172.93C451.175 179.856 454.63 191.715 447.38 199.418Z" fill="white"/>
<path d="M393.98 170.193C405.384 163.154 408.484 151.083 400.903 143.231C393.323 135.38 377.933 134.72 366.528 141.758C355.124 148.797 352.025 160.868 359.605 168.72C367.186 176.572 382.576 177.231 393.98 170.193Z" fill="#BD1E51"/>
<path opacity="0.2" d="M390.366 168.172C381.534 173.627 370.31 174.458 362.174 170.907C361.232 170.244 360.372 169.51 359.606 168.716C352.024 160.867 355.122 148.794 366.526 141.757C375.358 136.306 386.582 135.472 394.715 139.02C395.658 139.683 396.52 140.418 397.286 141.213C404.869 149.063 401.769 161.135 390.366 168.172Z" fill="white"/>
<path d="M44.8151 88.7138C67.7549 88.7138 86.3512 73.8452 86.3512 55.5039C86.3512 37.1625 67.7549 22.2939 44.8151 22.2939C21.8753 22.2939 3.27893 37.1625 3.27893 55.5039C3.27893 73.8452 21.8753 88.7138 44.8151 88.7138Z" fill="#F4F4F4"/>
<g opacity="0.05">
<path d="M44.815 81.831C63.0005 81.831 77.7429 70.0439 77.7429 55.5038C77.7429 40.9636 63.0005 29.1765 44.815 29.1765C26.6294 29.1765 11.8871 40.9636 11.8871 55.5038C11.8871 70.0439 26.6294 81.831 44.815 81.831Z" fill="#292A2E"/>
</g>
<path d="M34.0372 64.9078L37.109 61.0995C39.5429 62.5911 41.6732 63.3527 43.9376 63.3527C46.6524 63.3527 47.8467 62.4524 47.8467 60.7096C47.8467 56.7698 35.2038 56.8408 35.2038 49.9305C35.2038 45.4882 39.0523 42.6586 45.1212 42.6586C49.2183 42.6586 52.0019 44.0106 54.2389 45.9074L50.7162 49.134C48.9753 47.8681 47.4992 47.2013 45.4991 47.2013C43.1933 47.2013 41.9452 47.9442 41.9452 49.6645C41.9452 53.3175 54.5878 52.9977 54.5878 60.3163C54.5878 64.7139 50.9485 67.8954 43.9376 67.8954C40.9127 67.8944 36.7423 66.8675 34.0372 64.9078ZM42.4615 38.9049H47.1337V44.4199H42.4615V38.9049ZM42.4615 65.5961H47.1337V71.6471H42.4615V65.5961Z" fill="white"/>
<path d="M410.996 66.4198C433.936 66.4198 452.533 51.5512 452.533 33.2099C452.533 14.8686 433.936 0 410.996 0C388.057 0 369.46 14.8686 369.46 33.2099C369.46 51.5512 388.057 66.4198 410.996 66.4198Z" fill="#F4F4F4"/>
<g opacity="0.05">
<path d="M410.996 59.537C429.182 59.537 443.924 47.7499 443.924 33.2098C443.924 18.6697 429.182 6.88257 410.996 6.88257C392.811 6.88257 378.068 18.6697 378.068 33.2098C378.068 47.7499 392.811 59.537 410.996 59.537Z" fill="#292A2E"/>
</g>
<path d="M400.219 42.6135L403.29 38.8055C405.724 40.2968 407.854 41.0588 410.119 41.0588C412.834 41.0588 414.028 40.1582 414.028 38.4153C414.028 34.4755 401.385 34.5465 401.385 27.6362C401.385 23.1942 405.234 20.3643 411.303 20.3643C415.399 20.3643 418.183 21.716 420.42 23.6128L416.897 26.8394C415.156 25.5735 413.68 24.907 411.681 24.907C409.375 24.907 408.126 25.6499 408.126 27.3703C408.126 31.0233 420.769 30.703 420.769 38.022C420.769 42.4193 417.129 45.6011 410.119 45.6011C407.094 45.6005 402.923 44.5735 400.219 42.6135ZM408.642 16.611H413.315V22.1256H408.642V16.611ZM408.642 43.3018H413.315V49.3531H408.642V43.3018Z" fill="white"/>
<path d="M375.544 17.0918H87.4546C80.3798 17.0918 74.6447 21.6773 74.6447 27.3339V195.978C74.6447 201.635 80.3798 206.22 87.4546 206.22H375.544C382.619 206.22 388.354 201.635 388.354 195.978V27.3339C388.354 21.6773 382.619 17.0918 375.544 17.0918Z" fill="white"/>
<path d="M375.544 206.561H87.4546C83.9452 206.558 80.5807 205.442 78.0992 203.458C75.6176 201.474 74.2217 198.784 74.2177 195.978V27.3341C74.2216 24.5281 75.6175 21.838 78.099 19.8539C80.5806 17.8698 83.9451 16.7538 87.4546 16.7506H375.544C379.053 16.7537 382.418 17.8697 384.899 19.8538C387.381 21.838 388.777 24.5281 388.781 27.3341V195.978C388.777 198.784 387.381 201.474 384.899 203.458C382.418 205.442 379.053 206.558 375.544 206.561ZM87.4546 17.4334C84.1715 17.4363 81.024 18.4803 78.7025 20.3364C76.3811 22.1926 75.0753 24.7091 75.0716 27.3341V195.978C75.0753 198.603 76.3811 201.119 78.7025 202.976C81.024 204.832 84.1715 205.876 87.4546 205.879H375.544C378.827 205.876 381.974 204.832 384.296 202.976C386.617 201.119 387.923 198.603 387.927 195.978V27.3341C387.923 24.7091 386.617 22.1926 384.296 20.3364C381.974 18.4803 378.827 17.4363 375.544 17.4334H87.4546Z" fill="#292A2E"/>
<path d="M130.642 109.529C130.473 109.529 130.307 109.503 130.151 109.451C129.996 109.4 129.855 109.324 129.736 109.229L123.758 104.449C123.525 104.256 123.395 103.997 123.398 103.729C123.401 103.46 123.536 103.203 123.774 103.013C124.011 102.824 124.332 102.716 124.668 102.714C125.004 102.711 125.328 102.814 125.569 103.001L131.547 107.781C131.726 107.924 131.848 108.106 131.898 108.305C131.947 108.504 131.922 108.71 131.825 108.897C131.728 109.084 131.564 109.244 131.353 109.356C131.142 109.469 130.895 109.529 130.642 109.529Z" fill="#F1B814"/>
<path d="M124.664 109.529C124.41 109.529 124.163 109.469 123.952 109.356C123.742 109.244 123.577 109.084 123.48 108.897C123.383 108.71 123.358 108.504 123.408 108.305C123.457 108.106 123.579 107.924 123.758 107.781L129.736 103.001C129.978 102.814 130.301 102.711 130.637 102.714C130.973 102.716 131.294 102.824 131.532 103.013C131.769 103.203 131.904 103.46 131.907 103.729C131.91 103.997 131.781 104.256 131.547 104.449L125.569 109.229C125.451 109.324 125.309 109.4 125.154 109.451C124.999 109.503 124.832 109.529 124.664 109.529Z" fill="#F1B814"/>
<path d="M301.803 155.212L300.096 158.342L310.598 162.002L312.304 158.872L301.803 155.212Z" fill="#F1B814"/>
<path d="M305.118 71.3092L295.241 75.9496L297.404 78.893L307.281 74.2527L305.118 71.3092Z" fill="#F1B814"/>
<path d="M140.532 79.2559L139.209 82.502L150.102 85.3396L151.424 82.0936L140.532 79.2559Z" fill="#F1B814"/>
<path d="M153.284 133.7L143.901 138.948L146.348 141.744L155.73 136.496L153.284 133.7Z" fill="#F1B814"/>
<path d="M325.37 121.669L324.978 125.069L336.136 125.891L336.528 122.492L325.37 121.669Z" fill="#F1B814"/>
<path d="M336.733 97.2149C336.565 97.2151 336.399 97.1887 336.243 97.1372C336.088 97.0857 335.947 97.0101 335.828 96.9148L329.85 92.1352C329.727 92.0407 329.63 91.9277 329.563 91.8027C329.496 91.6778 329.46 91.5434 329.459 91.4074C329.457 91.2714 329.49 91.1365 329.554 91.0106C329.619 90.8848 329.714 90.7704 329.834 90.6743C329.954 90.5781 330.097 90.502 330.255 90.4505C330.412 90.399 330.581 90.3731 330.751 90.3743C330.921 90.3755 331.089 90.4037 331.245 90.4574C331.402 90.5111 331.543 90.5891 331.661 90.687L337.639 95.4666C337.818 95.6098 337.94 95.7923 337.99 95.9909C338.039 96.1896 338.014 96.3955 337.917 96.5826C337.82 96.7697 337.656 96.9297 337.445 97.0422C337.234 97.1548 336.987 97.2149 336.733 97.2149Z" fill="#F1B814"/>
<path d="M330.755 97.2149C330.502 97.2149 330.255 97.1548 330.044 97.0422C329.833 96.9297 329.669 96.7697 329.572 96.5826C329.475 96.3955 329.45 96.1896 329.499 95.9909C329.549 95.7923 329.671 95.6098 329.85 95.4666L335.828 90.687C335.946 90.5891 336.087 90.5111 336.244 90.4574C336.4 90.4037 336.568 90.3755 336.738 90.3743C336.908 90.3731 337.077 90.399 337.234 90.4505C337.392 90.502 337.535 90.5781 337.655 90.6743C337.775 90.7704 337.87 90.8848 337.935 91.0106C337.999 91.1365 338.032 91.2714 338.03 91.4074C338.029 91.5434 337.993 91.6778 337.926 91.8027C337.859 91.9277 337.761 92.0407 337.639 92.1352L331.661 96.9148C331.542 97.0101 331.401 97.0856 331.246 97.1371C331.09 97.1886 330.924 97.215 330.755 97.2149Z" fill="#F1B814"/>
<path opacity="0.4" d="M231.5 171.073C269.12 171.073 299.618 146.689 299.618 116.609C299.618 86.5299 269.12 62.1458 231.5 62.1458C193.879 62.1458 163.381 86.5299 163.381 116.609C163.381 146.689 193.879 171.073 231.5 171.073Z" fill="#C99911"/>
<path d="M231.5 154.699C257.81 154.699 279.138 137.645 279.138 116.609C279.138 95.5733 257.81 78.5201 231.5 78.5201C205.189 78.5201 183.861 95.5733 183.861 116.609C183.861 137.645 205.189 154.699 231.5 154.699Z" fill="#C99911"/>
<path d="M221.758 132.95C221.384 132.95 221.014 132.89 220.67 132.772C220.326 132.655 220.015 132.483 219.757 132.267L204.594 119.65C204.336 119.44 204.134 119.192 203.997 118.92C203.86 118.647 203.793 118.356 203.798 118.063C203.803 117.769 203.881 117.479 204.028 117.21C204.174 116.941 204.386 116.698 204.65 116.494C204.915 116.291 205.227 116.132 205.57 116.026C205.912 115.919 206.277 115.869 206.644 115.876C207.011 115.884 207.372 115.949 207.707 116.069C208.042 116.189 208.344 116.361 208.596 116.575L221.901 127.646L256.686 102.696C256.957 102.499 257.274 102.345 257.619 102.246C257.964 102.147 258.33 102.103 258.696 102.118C259.062 102.132 259.421 102.204 259.752 102.33C260.083 102.457 260.38 102.634 260.625 102.852C260.87 103.07 261.058 103.325 261.179 103.602C261.3 103.879 261.351 104.172 261.33 104.465C261.308 104.757 261.214 105.044 261.053 105.307C260.892 105.571 260.668 105.806 260.393 106L223.612 132.381C223.103 132.747 222.443 132.95 221.758 132.95Z" fill="white"/>
<path d="M388.354 27.3326V37.6386H74.646V27.3326C74.646 24.6163 75.9956 22.0112 78.3979 20.0904C80.8003 18.1696 84.0585 17.0906 87.4559 17.0906H375.544C378.941 17.0906 382.199 18.1696 384.602 20.0904C387.004 22.0112 388.354 24.6163 388.354 27.3326Z" fill="#292A2E"/>
<path d="M16.0099 207.455C13.4303 207.455 10.889 206.956 8.60228 206.002C6.31555 205.048 4.35107 203.666 2.87605 201.973C1.40102 200.281 0.459111 198.33 0.130478 196.284C-0.198155 194.238 0.0962177 192.159 0.988544 190.224C1.89421 188.259 25.1246 140.314 29.1704 131.981L57.1263 144.988C54.8525 149.674 46.614 167.434 39.9956 181.741L50.9912 180.785L54.452 204.192L17.7448 207.382C17.1685 207.432 16.5894 207.456 16.0099 207.455Z" fill="#3F0A1B"/>
<path d="M35.1991 208.196L30.3164 227.628H125.152L119.689 207.827L35.1991 208.196Z" fill="#262626"/>
<path d="M107.449 122.01C107.351 122 104.661 130.095 83.6655 128.835C69.1306 127.964 65.5865 120.054 65.2534 120.054C66.8205 119.788 69.3654 119.511 70.0614 119.214C72.3501 118.231 74.0171 117.034 74.8566 114.465C75.5129 112.457 75.8472 104.723 75.8472 100.843L98.2133 104.862C97.9016 109.238 95.7197 119.385 103.367 121.181C104.64 121.478 106.01 121.751 107.449 122.01Z" fill="#E98862"/>
<path d="M97.4404 113.467C88.6233 114.023 77.2968 111.046 75.1452 101.641L73.2041 93.1541C71.0524 83.7485 75.4872 75.2203 86.5635 73.6007C97.6394 71.981 107.663 78.395 109.814 87.8006L110.673 91.5581C111.498 95.1667 113.171 112.474 97.4404 113.467Z" fill="#E98862"/>
<path d="M55.704 121.356C47.7807 121.826 39.7014 122.512 33.8712 126.828C26.8497 132.025 25.5772 138.416 30.0569 156.003C33.9109 171.136 32.3823 177.748 34.9605 205.672C35.0365 206.495 35.1992 208.196 35.1992 208.196L119.958 208.084C119.958 208.084 127.9 171.036 132.285 153.949C135.62 140.958 144.378 125.187 107.449 122.009C107.352 122.001 77.7341 120.049 55.704 121.356Z" fill="#3F0A1B"/>
<path d="M35.1991 208.367C35.1438 208.367 35.0907 208.35 35.0509 208.32C35.0111 208.289 34.9877 208.247 34.9856 208.203L32.3292 153.075C32.3272 153.03 32.3476 152.986 32.3862 152.953C32.4247 152.92 32.4781 152.9 32.5346 152.898C32.5629 152.897 32.5914 152.899 32.6182 152.907C32.645 152.914 32.6696 152.926 32.6904 152.941C32.7113 152.957 32.7279 152.975 32.7392 152.996C32.7505 153.017 32.7563 153.04 32.7562 153.062L35.4126 208.19C35.4147 208.235 35.3942 208.279 35.3557 208.313C35.3172 208.346 35.2638 208.365 35.2072 208.367L35.1991 208.367Z" fill="#0C0C0C"/>
<path d="M171.203 141.039L177.158 130.359C177.289 130.125 177.48 129.914 177.718 129.742C177.956 129.569 178.236 129.438 178.541 129.357C178.846 129.276 179.169 129.247 179.489 129.271C179.809 129.295 180.119 129.372 180.399 129.497C180.909 129.741 181.287 130.128 181.46 130.582C181.633 131.036 181.589 131.525 181.336 131.955L180.06 134.245L188.209 128.517C189.101 127.868 190.716 127.527 191.561 128.375C191.913 128.684 192.124 129.08 192.158 129.497C192.193 129.915 192.049 130.329 191.751 130.673C191.761 130.678 191.77 130.684 191.778 130.691C191.783 130.696 191.788 130.703 191.792 130.709L193.168 129.708C193.422 129.522 193.726 129.385 194.056 129.305C194.386 129.225 194.734 129.205 195.074 129.247C195.415 129.288 195.74 129.39 196.025 129.544C196.31 129.699 196.549 129.902 196.724 130.14C196.989 130.518 197.084 130.958 196.992 131.386C196.9 131.814 196.628 132.204 196.22 132.49L195.634 132.916C195.642 132.935 195.645 132.955 195.644 132.976C196.123 132.761 196.682 132.69 197.221 132.775C197.759 132.859 198.243 133.095 198.585 133.438C198.945 133.823 199.11 134.302 199.048 134.78C198.986 135.258 198.7 135.7 198.249 136.017L196.797 137.075C196.831 137.072 196.865 137.075 196.897 137.084C196.929 137.094 196.958 137.109 196.981 137.129C197.007 137.154 197.023 137.184 197.028 137.216C197.521 137.12 198.04 137.156 198.505 137.318C198.97 137.481 199.355 137.761 199.602 138.115C199.852 138.492 199.935 138.925 199.838 139.345C199.741 139.764 199.47 140.145 199.069 140.426L186.799 149.357C185.082 150.607 182.938 151.418 180.641 151.687C178.344 151.956 175.999 151.67 173.907 150.866C172.103 150.174 170.707 148.945 170.018 147.443C169.328 145.941 169.398 144.283 170.213 142.821L171.203 141.039Z" fill="#E98862"/>
<g opacity="0.2">
<path d="M183.719 136.373C183.757 136.406 183.81 136.426 183.866 136.428C183.922 136.431 183.976 136.415 184.018 136.386L191.76 130.93C191.781 130.915 191.798 130.897 191.811 130.877C191.823 130.857 191.83 130.835 191.832 130.813C191.834 130.79 191.83 130.768 191.821 130.747C191.812 130.726 191.798 130.706 191.779 130.689C191.76 130.672 191.738 130.659 191.713 130.649C191.687 130.639 191.66 130.633 191.632 130.632C191.604 130.63 191.576 130.633 191.55 130.641C191.523 130.648 191.499 130.659 191.477 130.674L183.736 136.129C183.715 136.144 183.698 136.162 183.686 136.182C183.674 136.202 183.666 136.224 183.665 136.247C183.663 136.269 183.667 136.291 183.676 136.313C183.685 136.334 183.699 136.353 183.718 136.37L183.719 136.373Z" fill="#0C0C0C"/>
</g>
<g opacity="0.2">
<path d="M186.635 139.17C186.672 139.203 186.725 139.222 186.781 139.224C186.837 139.227 186.892 139.211 186.933 139.182L195.573 133.094C195.594 133.079 195.612 133.061 195.624 133.041C195.636 133.021 195.643 132.999 195.645 132.976C195.647 132.954 195.643 132.931 195.634 132.91C195.625 132.889 195.611 132.869 195.592 132.853C195.554 132.82 195.501 132.8 195.445 132.797C195.389 132.795 195.334 132.809 195.291 132.838L186.651 138.926C186.63 138.94 186.613 138.958 186.6 138.978C186.588 138.999 186.581 139.021 186.579 139.043C186.577 139.065 186.581 139.088 186.59 139.109C186.599 139.13 186.613 139.15 186.632 139.167L186.635 139.17Z" fill="#0C0C0C"/>
</g>
<g opacity="0.2">
<path d="M189.77 142.212C189.808 142.245 189.86 142.265 189.916 142.268C189.972 142.27 190.027 142.254 190.069 142.225L196.961 137.369C197.003 137.339 197.029 137.296 197.033 137.251C197.036 137.206 197.017 137.161 196.98 137.127C196.942 137.093 196.889 137.073 196.833 137.07C196.776 137.067 196.721 137.082 196.678 137.112L189.786 141.969C189.765 141.984 189.748 142.002 189.736 142.022C189.723 142.042 189.716 142.064 189.714 142.086C189.713 142.109 189.716 142.131 189.726 142.152C189.735 142.173 189.749 142.193 189.767 142.21L189.77 142.212Z" fill="#0C0C0C"/>
</g>
<path d="M105.615 104.831C104.032 98.4727 103.306 94.2308 103.391 89.7554C105.62 86.6288 105.034 83.0406 104.527 81.49C106.712 82.4432 107.626 82.5483 109.682 82.5483C109.682 82.5483 105.995 70.7184 93.4646 67.5352C91.1588 66.8182 85.2773 65.9125 77.4659 66.7691C70.8218 67.4976 54.4439 71.4695 52.1022 86.2119V86.2205C52.0245 86.7094 50.4523 100.292 47.3173 106.809C43.1024 115.57 37.1859 118.292 37.3358 128.4C37.5288 141.402 67.4246 143.133 85.4584 142.159C103.492 141.184 113.555 136.446 113.686 127.075C113.831 116.577 108.781 117.552 105.615 104.831Z" fill="#0A0A0A"/>
<path d="M105.62 99.5014C102.254 99.9933 98.8665 97.5131 98.2512 94.8221C97.6359 92.1312 100.025 90.2473 103.391 89.7554L105.62 99.5014Z" fill="#E98862"/>
<path d="M141.824 205.517C138.438 205.517 135.139 204.659 132.401 203.066C129.664 201.474 127.627 199.229 126.584 196.653L104.338 141.642L134.809 133.764L146.509 162.699L166.728 136.99L193.839 150.62L155.375 199.529C153.934 201.362 151.935 202.872 149.565 203.92C147.195 204.967 144.532 205.517 141.824 205.517Z" fill="#3F0A1B"/>
<path d="M123.872 190.329C123.858 190.329 123.845 190.328 123.832 190.326C123.777 190.318 123.727 190.292 123.695 190.255C123.663 190.217 123.651 190.171 123.661 190.127L131.224 157.304C131.234 157.26 131.266 157.22 131.313 157.194C131.359 157.169 131.417 157.159 131.473 157.167C131.528 157.175 131.578 157.201 131.61 157.238C131.642 157.275 131.654 157.321 131.644 157.366L124.082 190.189C124.073 190.228 124.047 190.264 124.008 190.289C123.97 190.315 123.921 190.329 123.872 190.329Z" fill="#0C0C0C"/>
<path d="M149.231 170.447C149.183 170.447 149.137 170.435 149.1 170.412C149.062 170.389 149.035 170.356 149.023 170.32L146.504 162.561C146.497 162.539 146.495 162.517 146.499 162.494C146.503 162.472 146.513 162.451 146.527 162.431C146.541 162.412 146.56 162.395 146.582 162.382C146.605 162.368 146.63 162.358 146.657 162.353C146.684 162.347 146.713 162.346 146.74 162.349C146.768 162.352 146.795 162.359 146.819 162.371C146.843 162.382 146.864 162.397 146.881 162.415C146.898 162.433 146.91 162.453 146.917 162.475L149.437 170.234C149.451 170.278 149.443 170.324 149.414 170.363C149.385 170.402 149.338 170.43 149.283 170.442C149.266 170.446 149.248 170.447 149.231 170.447Z" fill="#0C0C0C"/>
<path d="M9.72021 227.97H436.564C436.677 227.97 436.786 227.934 436.866 227.87C436.946 227.806 436.991 227.719 436.991 227.629C436.991 227.538 436.946 227.451 436.866 227.387C436.786 227.323 436.677 227.287 436.564 227.287H9.72021C9.60696 227.287 9.49836 227.323 9.41828 227.387C9.3382 227.451 9.29321 227.538 9.29321 227.629C9.29321 227.719 9.3382 227.806 9.41828 227.87C9.49836 227.934 9.60696 227.97 9.72021 227.97Z" fill="#292A2E"/>
<path d="M336.464 113.358L418.168 113.358C422.478 113.358 425.972 110.564 425.972 107.118V64.3059C425.972 60.8596 422.478 58.0658 418.168 58.0658L336.464 58.0658C332.154 58.0658 328.66 60.8596 328.66 64.3059V107.118C328.66 110.564 332.154 113.358 336.464 113.358Z" fill="#292A2E"/>
<path d="M350.785 65.7683H340.583C338.819 65.7683 337.39 66.9113 337.39 68.3213V73.0719C337.39 74.4819 338.819 75.6249 340.583 75.6249H350.785C352.548 75.6249 353.978 74.4819 353.978 73.0719V68.3213C353.978 66.9113 352.548 65.7683 350.785 65.7683Z" fill="white"/>
<path d="M353.978 66.8617V69.1747H348.358L347.451 68.4513V65.7699H352.61C352.79 65.7698 352.968 65.798 353.133 65.8528C353.299 65.9076 353.45 65.988 353.577 66.0894C353.704 66.1908 353.805 66.3112 353.873 66.4437C353.942 66.5762 353.978 66.7182 353.978 66.8617Z" fill="#7E1436"/>
<path d="M353.978 72.2183V74.5313C353.978 74.8211 353.834 75.099 353.577 75.3038C353.321 75.5087 352.974 75.6238 352.611 75.6238H347.451V72.8697L348.358 72.2177L353.978 72.2183Z" fill="#7E1436"/>
<path d="M343.825 65.7683V68.451L343.01 69.1758H337.39V66.8628C337.39 66.7194 337.425 66.5773 337.494 66.4448C337.562 66.3122 337.663 66.1918 337.79 66.0903C337.917 65.9889 338.067 65.9084 338.233 65.8535C338.399 65.7986 338.577 65.7704 338.756 65.7704L343.825 65.7683Z" fill="#7E1436"/>
<path d="M343.825 72.8705V75.6246H338.757C338.578 75.6246 338.4 75.5963 338.234 75.5414C338.069 75.4865 337.918 75.4061 337.791 75.3046C337.664 75.2032 337.564 75.0827 337.495 74.9502C337.426 74.8176 337.391 74.6756 337.391 74.5321V72.2191H343.011L343.825 72.8705Z" fill="#7E1436"/>
<path d="M418.41 102.379C418.41 103.917 417.646 105.392 416.286 106.479C414.926 107.567 413.081 108.177 411.158 108.177C409.235 108.177 407.39 107.567 406.03 106.479C404.67 105.392 403.906 103.917 403.906 102.379C403.908 101.515 404.153 100.662 404.624 99.8841C405.094 99.1061 405.779 98.4232 406.626 97.8862C407.686 97.1932 408.97 96.7555 410.329 96.6241C411.688 96.4927 413.065 96.6731 414.301 97.1442C415.537 97.6153 416.579 98.3576 417.307 99.2846C418.035 100.212 418.418 101.285 418.411 102.379H418.41Z" fill="#F1B814"/>
<path d="M403.907 106.873C402.843 107.566 401.556 108.004 400.194 108.136C398.833 108.267 397.452 108.087 396.213 107.617C394.974 107.146 393.927 106.405 393.194 105.478C392.461 104.551 392.072 103.476 392.072 102.379C392.072 101.283 392.461 100.208 393.194 99.2813C393.927 98.3543 394.974 97.6124 396.213 97.142C397.452 96.6715 398.833 96.4917 400.194 96.6234C401.556 96.7551 402.843 97.1929 403.907 97.8861C402.275 98.9731 401.546 100.567 401.546 102.379C401.546 104.191 402.274 105.858 403.907 106.873Z" fill="#7E1436"/>
<path d="M353.184 83.5784H338.724C337.987 83.5784 337.39 84.0559 337.39 84.6449V84.6453C337.39 85.2343 337.987 85.7118 338.724 85.7118H353.184C353.921 85.7118 354.518 85.2343 354.518 84.6453V84.6449C354.518 84.0559 353.921 83.5784 353.184 83.5784Z" fill="white"/>
<path d="M374.482 83.5784H360.021C359.284 83.5784 358.687 84.0559 358.687 84.6449V84.6453C358.687 85.2343 359.284 85.7118 360.021 85.7118H374.482C375.218 85.7118 375.816 85.2343 375.816 84.6453V84.6449C375.816 84.0559 375.218 83.5784 374.482 83.5784Z" fill="white"/>
<path d="M395.779 83.5784H381.318C380.581 83.5784 379.984 84.0559 379.984 84.6449V84.6453C379.984 85.2343 380.581 85.7118 381.318 85.7118H395.779C396.515 85.7118 397.113 85.2343 397.113 84.6453V84.6449C397.113 84.0559 396.515 83.5784 395.779 83.5784Z" fill="white"/>
<path d="M417.076 83.5784H402.615C401.878 83.5784 401.281 84.0559 401.281 84.6449V84.6453C401.281 85.2343 401.878 85.7118 402.615 85.7118H417.076C417.812 85.7118 418.409 85.2343 418.409 84.6453V84.6449C418.409 84.0559 417.812 83.5784 417.076 83.5784Z" fill="white"/>
</svg>
