<svg width="18" height="9" viewBox="0 0 18 9" fill="none" xmlns="http://www.w3.org/2000/svg">
<path d="M0.339761 0.904402C0.339882 0.714402 0.410003 0.524447 0.560098 0.374543C0.850283 0.0847278 1.33028 0.0850342 1.6201 0.375219L8.13594 6.89938C8.61563 7.37969 9.39563 7.38018 9.87594 6.90049L16.4001 0.384653C16.6903 0.0948385 17.1703 0.0951448 17.4601 0.38533C17.7499 0.675515 17.7496 1.15551 17.4594 1.44533L10.9353 7.96117C10.4249 8.47084 9.73475 8.7604 9.00475 8.75993C8.27475 8.75947 7.58493 8.47903 7.07526 7.9587L0.559422 1.43454C0.419517 1.28445 0.339639 1.0944 0.339761 0.904402Z" fill="#490B3D"/>
</svg>
