<svg width="461" height="274" viewBox="0 0 461 274" fill="none" xmlns="http://www.w3.org/2000/svg">
<path d="M388.295 178.366L387.446 178.455L397.929 270.512L398.778 270.423L388.295 178.366Z" fill="#292A2E"/>
<path d="M415.446 218.554L410.289 267.581L411.138 267.664L416.295 218.636L415.446 218.554Z" fill="#292A2E"/>
<path d="M424.313 261.655H386.047V273.589H424.313V261.655Z" fill="#292A2E"/>
<path opacity="0.2" d="M424.313 261.655H386.047V273.589H424.313V261.655Z" fill="white"/>
<path d="M447.381 239.681C454.629 230.423 451.174 216.17 439.662 207.846C428.15 199.523 412.941 200.281 405.692 209.539C398.444 218.797 401.899 233.05 413.411 241.374C424.923 249.697 440.132 248.94 447.381 239.681Z" fill="#BD1E51"/>
<path opacity="0.2" d="M447.381 239.681C454.629 230.423 451.174 216.17 439.662 207.846C428.15 199.523 412.941 200.281 405.692 209.539C398.444 218.797 401.899 233.05 413.411 241.374C424.923 249.697 440.132 248.94 447.381 239.681Z" fill="white"/>
<path opacity="0.5" d="M447.38 239.683C446.893 240.307 446.362 240.899 445.79 241.453C437.811 246.352 426.033 245.581 416.689 238.824C405.178 230.502 401.723 216.249 408.973 206.991C409.46 206.368 409.99 205.776 410.559 205.22C418.544 200.318 430.317 201.092 439.664 207.847C451.175 216.171 454.63 230.424 447.38 239.683Z" fill="white"/>
<path d="M393.98 204.557C405.384 196.097 408.484 181.589 400.903 172.152C393.323 162.714 377.933 161.921 366.528 170.381C355.124 178.84 352.025 193.349 359.605 202.786C367.186 212.223 382.576 213.016 393.98 204.557Z" fill="#BD1E51"/>
<path opacity="0.2" d="M390.366 202.128C381.534 208.684 370.31 209.683 362.174 205.415C361.232 204.618 360.372 203.736 359.606 202.782C352.024 193.347 355.122 178.838 366.526 170.38C375.358 163.828 386.582 162.826 394.715 167.089C395.658 167.886 396.52 168.77 397.286 169.726C404.869 179.161 401.769 193.67 390.366 202.128Z" fill="white"/>
<path d="M44.8151 106.626C67.7549 106.626 86.3512 88.7553 86.3512 66.7106C86.3512 44.666 67.7549 26.7953 44.8151 26.7953C21.8753 26.7953 3.27893 44.666 3.27893 66.7106C3.27893 88.7553 21.8753 106.626 44.8151 106.626Z" fill="#F4F4F4"/>
<g opacity="0.05">
<path d="M44.815 98.3536C63.0005 98.3536 77.7429 84.1866 77.7429 66.7106C77.7429 49.2347 63.0005 35.0676 44.815 35.0676C26.6294 35.0676 11.8871 49.2347 11.8871 66.7106C11.8871 84.1866 26.6294 98.3536 44.815 98.3536Z" fill="#292A2E"/>
</g>
<path d="M34.0372 78.0134L37.109 73.4361C39.5429 75.2289 41.6732 76.1443 43.9376 76.1443C46.6524 76.1443 47.8467 75.0623 47.8467 72.9675C47.8467 68.2323 35.2038 68.3176 35.2038 60.012C35.2038 54.6727 39.0523 51.2719 45.1212 51.2719C49.2183 51.2719 52.0019 52.8968 54.2389 55.1766L50.7162 59.0547C48.9753 57.5332 47.4992 56.7318 45.4991 56.7318C43.1933 56.7318 41.9452 57.6247 41.9452 59.6924C41.9452 64.083 54.5878 63.6985 54.5878 72.4948C54.5878 77.7804 50.9485 81.6043 43.9376 81.6043C40.9127 81.603 36.7423 80.3688 34.0372 78.0134ZM42.4615 46.7603H47.1337V53.3888H42.4615V46.7603ZM42.4615 78.8407H47.1337V86.1134H42.4615V78.8407Z" fill="white"/>
<path d="M410.996 79.8307C433.936 79.8307 452.533 61.96 452.533 39.9154C452.533 17.8707 433.936 0 410.996 0C388.057 0 369.46 17.8707 369.46 39.9154C369.46 61.96 388.057 79.8307 410.996 79.8307Z" fill="#F4F4F4"/>
<g opacity="0.05">
<path d="M410.996 71.5582C429.182 71.5582 443.924 57.3912 443.924 39.9152C443.924 22.4393 429.182 8.27222 410.996 8.27222C392.811 8.27222 378.068 22.4393 378.068 39.9152C378.068 57.3912 392.811 71.5582 410.996 71.5582Z" fill="#292A2E"/>
</g>
<path d="M400.219 51.2176L403.29 46.6407C405.724 48.4331 407.854 49.3489 410.119 49.3489C412.834 49.3489 414.028 48.2665 414.028 46.1717C414.028 41.4365 401.385 41.5218 401.385 33.2162C401.385 27.8773 405.234 24.4761 411.303 24.4761C415.399 24.4761 418.183 26.1006 420.42 28.3804L416.897 32.2585C415.156 30.737 413.68 29.936 411.681 29.936C409.375 29.936 408.126 30.8289 408.126 32.8966C408.126 37.2871 420.769 36.9023 420.769 45.699C420.769 50.9841 417.129 54.8085 410.119 54.8085C407.094 54.8076 402.923 53.5733 400.219 51.2176ZM408.642 19.9648H413.315V26.593H408.642V19.9648ZM408.642 52.0448H413.315V59.318H408.642V52.0448Z" fill="white"/>
<path d="M375.544 20.5428H87.4546C80.3798 20.5428 74.6447 26.0542 74.6447 32.8529V235.548C74.6447 242.347 80.3798 247.858 87.4546 247.858H375.544C382.619 247.858 388.354 242.347 388.354 235.548V32.8529C388.354 26.0542 382.619 20.5428 375.544 20.5428Z" fill="white"/>
<path d="M375.544 248.268H87.4546C83.9452 248.264 80.5807 246.923 78.0992 244.538C75.6176 242.154 74.2217 238.92 74.2177 235.548V32.8531C74.2216 29.4806 75.6175 26.2473 78.099 23.8626C80.5806 21.4779 83.9451 20.1365 87.4546 20.1327H375.544C379.053 20.1364 382.418 21.4777 384.899 23.8625C387.381 26.2472 388.777 29.4806 388.781 32.8531V235.548C388.777 238.92 387.381 242.154 384.899 244.538C382.418 246.923 379.053 248.265 375.544 248.268V248.268ZM87.4546 20.9534C84.1715 20.9568 81.024 22.2117 78.7025 24.4425C76.3811 26.6734 75.0753 29.6981 75.0716 32.8531V235.548C75.0753 238.703 76.3811 241.728 78.7025 243.958C81.024 246.189 84.1715 247.444 87.4546 247.448H375.544C378.827 247.444 381.974 246.189 384.296 243.958C386.617 241.728 387.923 238.703 387.927 235.548V32.8531C387.923 29.6981 386.617 26.6734 384.296 24.4425C381.974 22.2117 378.827 20.9568 375.544 20.9534H87.4546Z" fill="#292A2E"/>
<path d="M130.642 131.644C130.473 131.644 130.307 131.612 130.151 131.551C129.996 131.489 129.855 131.398 129.736 131.283L123.758 125.539C123.525 125.307 123.395 124.996 123.398 124.673C123.401 124.35 123.536 124.041 123.774 123.813C124.011 123.585 124.332 123.455 124.668 123.453C125.004 123.45 125.328 123.574 125.569 123.798L131.547 129.543C131.726 129.715 131.848 129.934 131.898 130.173C131.947 130.412 131.922 130.659 131.825 130.884C131.728 131.109 131.564 131.301 131.353 131.437C131.142 131.572 130.895 131.644 130.642 131.644V131.644Z" fill="#F1B814"/>
<path d="M124.664 131.644C124.41 131.644 124.163 131.572 123.952 131.437C123.742 131.301 123.577 131.109 123.48 130.884C123.383 130.659 123.358 130.412 123.408 130.173C123.457 129.934 123.579 129.715 123.758 129.543L129.736 123.798C129.978 123.574 130.301 123.45 130.637 123.453C130.973 123.455 131.294 123.585 131.532 123.813C131.769 124.041 131.904 124.35 131.907 124.673C131.91 124.996 131.781 125.307 131.547 125.539L125.569 131.283C125.451 131.398 125.309 131.489 125.154 131.551C124.999 131.613 124.832 131.644 124.664 131.644V131.644Z" fill="#F1B814"/>
<path d="M301.803 186.551L300.096 190.312L310.598 194.712L312.304 190.951L301.803 186.551Z" fill="#F1B814"/>
<path d="M305.118 85.7073L295.241 91.2847L297.404 94.8225L307.281 89.2451L305.118 85.7073Z" fill="#F1B814"/>
<path d="M140.532 95.2586L139.209 99.16L150.102 102.571L151.424 98.6692L140.532 95.2586Z" fill="#F1B814"/>
<path d="M153.284 160.695L143.901 167.003L146.348 170.364L155.73 164.056L153.284 160.695Z" fill="#F1B814"/>
<path d="M325.37 146.236L324.978 150.322L336.136 151.31L336.528 147.224L325.37 146.236Z" fill="#F1B814"/>
<path d="M336.733 116.844C336.565 116.844 336.399 116.812 336.243 116.75C336.088 116.688 335.947 116.598 335.828 116.483L329.85 110.738C329.727 110.625 329.63 110.489 329.563 110.339C329.496 110.189 329.46 110.027 329.459 109.864C329.457 109.7 329.49 109.538 329.554 109.387C329.619 109.235 329.714 109.098 329.834 108.982C329.954 108.867 330.097 108.775 330.255 108.713C330.412 108.652 330.581 108.62 330.751 108.622C330.921 108.623 331.089 108.657 331.245 108.722C331.402 108.786 331.543 108.88 331.661 108.998L337.639 114.742C337.818 114.914 337.94 115.134 337.99 115.373C338.039 115.611 338.014 115.859 337.917 116.084C337.82 116.309 337.656 116.501 337.445 116.636C337.234 116.771 336.987 116.844 336.733 116.844V116.844Z" fill="#F1B814"/>
<path d="M330.755 116.844C330.502 116.844 330.255 116.771 330.044 116.636C329.833 116.501 329.669 116.309 329.572 116.084C329.475 115.859 329.45 115.611 329.499 115.373C329.549 115.134 329.671 114.914 329.85 114.742L335.828 108.998C335.946 108.88 336.087 108.786 336.244 108.722C336.4 108.657 336.568 108.623 336.738 108.622C336.908 108.62 337.077 108.652 337.234 108.713C337.392 108.775 337.535 108.867 337.655 108.982C337.775 109.098 337.87 109.235 337.935 109.387C337.999 109.538 338.032 109.7 338.03 109.864C338.029 110.027 337.993 110.189 337.926 110.339C337.859 110.489 337.761 110.625 337.639 110.738L331.661 116.483C331.542 116.597 331.401 116.688 331.246 116.75C331.09 116.812 330.924 116.844 330.755 116.844V116.844Z" fill="#F1B814"/>
<path opacity="0.4" d="M231.5 205.614C269.12 205.614 299.618 176.307 299.618 140.154C299.618 104.001 269.12 74.6936 231.5 74.6936C193.879 74.6936 163.381 104.001 163.381 140.154C163.381 176.307 193.879 205.614 231.5 205.614Z" fill="#C99911"/>
<path d="M231.5 185.934C257.81 185.934 279.138 165.438 279.138 140.154C279.138 114.871 257.81 94.3743 231.5 94.3743C205.189 94.3743 183.861 114.871 183.861 140.154C183.861 165.438 205.189 185.934 231.5 185.934Z" fill="#C99911"/>
<path d="M221.758 159.794C221.384 159.794 221.014 159.721 220.67 159.58C220.326 159.439 220.015 159.233 219.757 158.973L204.594 143.808C204.336 143.557 204.134 143.259 203.997 142.931C203.86 142.604 203.793 142.253 203.798 141.901C203.803 141.548 203.881 141.2 204.028 140.876C204.174 140.553 204.386 140.26 204.65 140.016C204.915 139.772 205.227 139.58 205.57 139.452C205.912 139.325 206.277 139.264 206.644 139.273C207.011 139.282 207.372 139.361 207.707 139.505C208.042 139.649 208.344 139.855 208.596 140.112L221.901 153.419L256.686 123.432C256.957 123.194 257.274 123.01 257.619 122.891C257.964 122.771 258.33 122.719 258.696 122.736C259.062 122.754 259.421 122.841 259.752 122.992C260.083 123.144 260.38 123.357 260.625 123.619C260.87 123.881 261.058 124.188 261.179 124.52C261.3 124.853 261.351 125.205 261.33 125.557C261.308 125.909 261.214 126.253 261.053 126.57C260.892 126.887 260.668 127.17 260.393 127.402L223.612 159.111C223.103 159.551 222.443 159.794 221.758 159.794Z" fill="white"/>
<path d="M388.354 32.8514V45.2382H74.646V32.8514C74.646 29.5866 75.9956 26.4555 78.3979 24.1469C80.8003 21.8383 84.0585 20.5414 87.4559 20.5414H375.544C378.941 20.5414 382.199 21.8383 384.602 24.1469C387.004 26.4555 388.354 29.5866 388.354 32.8514Z" fill="#292A2E"/>
<path d="M16.0099 249.343C13.4303 249.343 10.889 248.743 8.60228 247.596C6.31555 246.449 4.35107 244.788 2.87605 242.754C1.40102 240.721 0.459111 238.375 0.130478 235.916C-0.198155 233.457 0.0962177 230.958 0.988544 228.633C1.89421 226.271 25.1246 168.644 29.1704 158.629L57.1263 174.263C54.8525 179.895 46.614 201.241 39.9956 218.436L50.9912 217.287L54.452 245.42L17.7448 249.255C17.1685 249.314 16.5894 249.344 16.0099 249.343V249.343Z" fill="#3F0A1B"/>
<path d="M35.1991 250.234L30.3164 273.589H125.152L119.689 249.79L35.1991 250.234Z" fill="#262626"/>
<path d="M107.449 146.646C107.351 146.633 104.661 156.362 83.6655 154.848C69.1306 153.802 65.5865 144.294 65.2534 144.294C66.8205 143.974 69.3654 143.642 70.0614 143.285C72.3501 142.103 74.0171 140.665 74.8566 137.577C75.5129 135.163 75.8472 125.868 75.8472 121.205L98.2133 126.034C97.9016 131.295 95.7197 143.49 103.367 145.649C104.64 146.005 106.01 146.334 107.449 146.646Z" fill="#E98862"/>
<path d="M97.4404 136.377C88.6233 137.046 77.2968 133.468 75.1452 122.163L73.2041 111.963C71.0524 100.658 75.4872 90.4081 86.5635 88.4615C97.6394 86.5149 107.663 94.2238 109.814 105.529L110.673 110.045C111.498 114.382 113.171 135.184 97.4404 136.377Z" fill="#E98862"/>
<path d="M55.704 145.859C47.7807 146.424 39.7014 147.249 33.8712 152.436C26.8497 158.683 25.5772 166.364 30.0569 187.502C33.9109 205.69 32.3823 213.638 34.9605 247.2C35.0365 248.189 35.1992 250.234 35.1992 250.234L119.958 250.099C119.958 250.099 127.9 205.57 132.285 185.033C135.62 169.419 144.378 150.464 107.449 146.644C107.352 146.634 77.7341 144.289 55.704 145.859Z" fill="#3F0A1B"/>
<path d="M35.1991 250.439C35.1438 250.439 35.0907 250.418 35.0509 250.382C35.0111 250.345 34.9877 250.295 34.9856 250.242L32.3292 183.983C32.3272 183.928 32.3476 183.875 32.3862 183.836C32.4247 183.796 32.4781 183.772 32.5346 183.77C32.5629 183.768 32.5914 183.771 32.6182 183.78C32.645 183.789 32.6696 183.803 32.6904 183.822C32.7113 183.84 32.7279 183.863 32.7392 183.888C32.7505 183.913 32.7563 183.94 32.7562 183.967L35.4126 250.226C35.4147 250.28 35.3942 250.333 35.3557 250.373C35.3172 250.413 35.2638 250.437 35.2072 250.439L35.1991 250.439Z" fill="#0C0C0C"/>
<path d="M171.203 169.517L177.158 156.68C177.289 156.398 177.48 156.146 177.718 155.938C177.956 155.731 178.236 155.573 178.541 155.476C178.846 155.378 179.169 155.343 179.489 155.372C179.809 155.401 180.119 155.493 180.399 155.644C180.909 155.937 181.287 156.402 181.46 156.948C181.633 157.494 181.589 158.082 181.336 158.598L180.06 161.35L188.209 154.466C189.101 153.686 190.716 153.276 191.561 154.295C191.913 154.667 192.124 155.143 192.158 155.644C192.193 156.146 192.049 156.644 191.751 157.057C191.761 157.063 191.77 157.07 191.778 157.078C191.783 157.086 191.788 157.093 191.792 157.101L193.168 155.897C193.422 155.674 193.726 155.509 194.056 155.413C194.386 155.317 194.734 155.293 195.074 155.343C195.415 155.393 195.74 155.515 196.025 155.701C196.31 155.887 196.549 156.131 196.724 156.417C196.989 156.872 197.084 157.401 196.992 157.915C196.9 158.429 196.628 158.897 196.22 159.241L195.634 159.753C195.642 159.777 195.645 159.801 195.644 159.825C196.123 159.567 196.682 159.481 197.221 159.583C197.759 159.685 198.243 159.968 198.585 160.381C198.945 160.843 199.11 161.419 199.048 161.994C198.986 162.568 198.7 163.099 198.249 163.481L196.797 164.753C196.831 164.748 196.865 164.752 196.897 164.763C196.929 164.775 196.958 164.793 196.981 164.817C197.007 164.847 197.023 164.883 197.028 164.922C197.521 164.806 198.04 164.849 198.505 165.044C198.97 165.24 199.355 165.576 199.602 166.002C199.852 166.455 199.935 166.976 199.838 167.48C199.741 167.984 199.47 168.442 199.069 168.78L186.799 179.514C185.082 181.016 182.938 181.991 180.641 182.314C178.344 182.637 175.999 182.294 173.907 181.328C172.103 180.495 170.707 179.019 170.018 177.214C169.328 175.408 169.398 173.415 170.213 171.658L171.203 169.517Z" fill="#E98862"/>
<g opacity="0.2">
<path d="M183.719 163.909C183.757 163.948 183.81 163.972 183.866 163.975C183.922 163.977 183.976 163.959 184.018 163.923L191.76 157.367C191.781 157.349 191.798 157.327 191.811 157.303C191.823 157.279 191.83 157.252 191.832 157.225C191.834 157.199 191.83 157.172 191.821 157.146C191.812 157.121 191.798 157.097 191.779 157.077C191.76 157.057 191.738 157.04 191.713 157.028C191.687 157.016 191.66 157.01 191.632 157.008C191.604 157.006 191.576 157.01 191.55 157.019C191.523 157.027 191.499 157.041 191.477 157.059L183.736 163.615C183.715 163.633 183.698 163.655 183.686 163.679C183.674 163.703 183.666 163.729 183.665 163.756C183.663 163.783 183.667 163.81 183.676 163.836C183.685 163.861 183.699 163.885 183.718 163.905L183.719 163.909Z" fill="#0C0C0C"/>
</g>
<g opacity="0.2">
<path d="M186.635 167.27C186.672 167.309 186.725 167.333 186.781 167.335C186.837 167.338 186.892 167.32 186.933 167.284L195.573 159.967C195.594 159.949 195.612 159.927 195.624 159.903C195.636 159.879 195.643 159.853 195.645 159.826C195.647 159.799 195.643 159.772 195.634 159.746C195.625 159.721 195.611 159.697 195.592 159.677C195.554 159.638 195.501 159.614 195.445 159.611C195.389 159.607 195.334 159.625 195.291 159.659L186.651 166.976C186.63 166.994 186.613 167.016 186.6 167.04C186.588 167.064 186.581 167.09 186.579 167.117C186.577 167.144 186.581 167.171 186.59 167.197C186.599 167.222 186.613 167.246 186.632 167.266L186.635 167.27Z" fill="#0C0C0C"/>
</g>
<g opacity="0.2">
<path d="M189.77 170.927C189.808 170.966 189.86 170.99 189.916 170.993C189.972 170.996 190.027 170.977 190.069 170.942L196.961 165.105C197.003 165.069 197.029 165.018 197.033 164.964C197.036 164.909 197.017 164.856 196.98 164.815C196.942 164.774 196.889 164.749 196.833 164.746C196.776 164.742 196.721 164.761 196.678 164.797L189.786 170.634C189.765 170.652 189.748 170.673 189.736 170.698C189.723 170.722 189.716 170.748 189.714 170.775C189.713 170.802 189.716 170.829 189.726 170.854C189.735 170.88 189.749 170.903 189.767 170.924L189.77 170.927Z" fill="#0C0C0C"/>
</g>
<path d="M105.615 125.998C104.032 118.355 103.306 113.257 103.391 107.878C105.62 104.12 105.034 99.8075 104.527 97.9438C106.712 99.0894 107.626 99.2158 109.682 99.2158C109.682 99.2158 105.995 84.9973 93.4646 81.1713C91.1588 80.3096 85.2773 79.221 77.4659 80.2505C70.8218 81.1262 54.4439 85.9 52.1022 103.619V103.629C52.0245 104.217 50.4523 120.542 47.3173 128.375C43.1024 138.905 37.1859 142.177 37.3358 154.325C37.5288 169.953 67.4246 172.033 85.4584 170.862C103.492 169.691 113.555 163.995 113.686 152.733C113.831 140.115 108.781 141.287 105.615 125.998Z" fill="#0A0A0A"/>
<path d="M105.62 119.592C102.254 120.183 98.8665 117.202 98.2512 113.968C97.6359 110.733 100.025 108.469 103.391 107.878L105.62 119.592Z" fill="#E98862"/>
<path d="M141.824 247.014C138.438 247.013 135.139 245.982 132.401 244.068C129.664 242.154 127.627 239.455 126.584 236.36L104.338 170.241L134.809 160.773L146.509 195.55L166.728 164.65L193.839 181.032L155.375 239.816C153.934 242.019 151.935 243.835 149.565 245.093C147.195 246.352 144.532 247.013 141.824 247.014V247.014Z" fill="#3F0A1B"/>
<path d="M123.872 228.758C123.858 228.758 123.845 228.757 123.832 228.755C123.777 228.745 123.727 228.714 123.695 228.669C123.663 228.624 123.651 228.569 123.661 228.516L131.224 189.066C131.234 189.012 131.266 188.965 131.313 188.934C131.359 188.903 131.417 188.891 131.473 188.901C131.528 188.911 131.578 188.941 131.61 188.986C131.642 189.031 131.654 189.086 131.644 189.14L124.082 228.59C124.073 228.637 124.047 228.68 124.008 228.711C123.97 228.741 123.921 228.758 123.872 228.758Z" fill="#0C0C0C"/>
<path d="M149.231 204.862C149.183 204.862 149.137 204.847 149.1 204.82C149.062 204.792 149.035 204.753 149.023 204.709L146.504 195.384C146.497 195.358 146.495 195.33 146.499 195.304C146.503 195.277 146.513 195.251 146.527 195.228C146.541 195.205 146.56 195.185 146.582 195.168C146.605 195.152 146.63 195.14 146.657 195.134C146.684 195.127 146.713 195.125 146.74 195.129C146.768 195.133 146.795 195.142 146.819 195.155C146.843 195.169 146.864 195.187 146.881 195.209C146.898 195.23 146.91 195.255 146.917 195.281L149.437 204.606C149.451 204.659 149.443 204.714 149.414 204.761C149.385 204.808 149.338 204.842 149.283 204.856C149.266 204.86 149.248 204.863 149.231 204.862Z" fill="#0C0C0C"/>
<path d="M9.72021 274H436.564C436.677 274 436.786 273.957 436.866 273.88C436.946 273.803 436.991 273.698 436.991 273.589C436.991 273.48 436.946 273.376 436.866 273.299C436.786 273.222 436.677 273.178 436.564 273.178H9.72021C9.60696 273.178 9.49836 273.222 9.41828 273.299C9.3382 273.376 9.29321 273.48 9.29321 273.589C9.29321 273.698 9.3382 273.803 9.41828 273.88C9.49836 273.957 9.60696 274 9.72021 274Z" fill="#292A2E"/>
<path d="M336.464 136.246H418.168C422.478 136.246 425.972 132.888 425.972 128.746V77.29C425.972 73.1478 422.478 69.7898 418.168 69.7898L336.464 69.7898C332.154 69.7898 328.66 73.1478 328.66 77.29V128.746C328.66 132.888 332.154 136.246 336.464 136.246Z" fill="#292A2E"/>
<path d="M350.785 79.0476H340.583C338.819 79.0476 337.39 80.4214 337.39 82.1161V87.8259C337.39 89.5206 338.819 90.8944 340.583 90.8944H350.785C352.548 90.8944 353.978 89.5206 353.978 87.8259V82.1161C353.978 80.4214 352.548 79.0476 350.785 79.0476Z" fill="white"/>
<path d="M353.978 80.3618V83.1418H348.358L347.451 82.2723V79.0496H352.61C352.79 79.0495 352.968 79.0833 353.133 79.1492C353.299 79.2151 353.45 79.3117 353.577 79.4336C353.704 79.5554 353.805 79.7001 353.873 79.8594C353.942 80.0187 353.978 80.1894 353.978 80.3618V80.3618Z" fill="#7E1436"/>
<path d="M353.978 86.8V89.58C353.978 89.9283 353.834 90.2623 353.577 90.5085C353.321 90.7548 352.974 90.8931 352.611 90.8931H347.451V87.5829L348.358 86.7992L353.978 86.8Z" fill="#7E1436"/>
<path d="M343.825 79.0476V82.272L343.01 83.1432H337.39V80.3631C337.39 80.1907 337.425 80.02 337.494 79.8607C337.562 79.7013 337.663 79.5566 337.79 79.4347C337.917 79.3127 338.067 79.216 338.233 79.15C338.399 79.084 338.577 79.0501 338.756 79.0501L343.825 79.0476Z" fill="#7E1436"/>
<path d="M343.825 87.5838V90.894H338.757C338.578 90.894 338.4 90.86 338.234 90.794C338.069 90.7281 337.918 90.6313 337.791 90.5094C337.664 90.3875 337.564 90.2427 337.495 90.0834C337.426 89.9241 337.391 89.7534 337.391 89.5809V86.8009H343.011L343.825 87.5838Z" fill="#7E1436"/>
<path d="M418.41 123.051C418.41 124.899 417.646 126.672 416.286 127.979C414.926 129.285 413.081 130.02 411.158 130.02C409.235 130.02 407.39 129.285 406.03 127.979C404.67 126.672 403.906 124.899 403.906 123.051C403.908 122.012 404.153 120.987 404.624 120.052C405.094 119.117 405.779 118.296 406.626 117.651C407.686 116.818 408.97 116.292 410.329 116.134C411.688 115.976 413.065 116.193 414.301 116.759C415.537 117.325 416.579 118.217 417.307 119.331C418.035 120.445 418.418 121.735 418.411 123.051H418.41Z" fill="#F1B814"/>
<path d="M403.907 128.452C402.843 129.285 401.556 129.811 400.194 129.969C398.833 130.128 397.452 129.911 396.213 129.346C394.974 128.781 393.927 127.889 393.194 126.775C392.461 125.66 392.072 124.369 392.072 123.051C392.072 121.733 392.461 120.442 393.194 119.327C393.927 118.213 394.974 117.321 396.213 116.756C397.452 116.191 398.833 115.974 400.194 116.133C401.556 116.291 402.843 116.817 403.907 117.65C402.275 118.957 401.546 120.873 401.546 123.051C401.546 125.228 402.274 127.232 403.907 128.452Z" fill="#7E1436"/>
<path d="M353.184 100.454H338.724C337.987 100.454 337.39 101.028 337.39 101.736V101.736C337.39 102.444 337.987 103.018 338.724 103.018H353.184C353.921 103.018 354.518 102.444 354.518 101.736V101.736C354.518 101.028 353.921 100.454 353.184 100.454Z" fill="white"/>
<path d="M374.482 100.454H360.021C359.284 100.454 358.687 101.028 358.687 101.736V101.736C358.687 102.444 359.284 103.018 360.021 103.018H374.482C375.218 103.018 375.816 102.444 375.816 101.736V101.736C375.816 101.028 375.218 100.454 374.482 100.454Z" fill="white"/>
<path d="M395.779 100.454H381.318C380.581 100.454 379.984 101.028 379.984 101.736V101.736C379.984 102.444 380.581 103.018 381.318 103.018H395.779C396.515 103.018 397.113 102.444 397.113 101.736V101.736C397.113 101.028 396.515 100.454 395.779 100.454Z" fill="white"/>
<path d="M417.076 100.454H402.615C401.878 100.454 401.281 101.028 401.281 101.736V101.736C401.281 102.444 401.878 103.018 402.615 103.018H417.076C417.812 103.018 418.409 102.444 418.409 101.736V101.736C418.409 101.028 417.812 100.454 417.076 100.454Z" fill="white"/>
</svg>
