<svg width="32" height="24" viewBox="0 0 32 24" fill="none" xmlns="http://www.w3.org/2000/svg">
<path fill-rule="evenodd" clip-rule="evenodd" d="M29.3333 0C30.04 0 30.7187 0.281333 31.2187 0.781333C31.7187 1.28133 32 1.96 32 2.66667V21.3333C32 22.04 31.7187 22.7187 31.2187 23.2187C30.7187 23.7187 30.04 24 29.3333 24H2.66667C1.96 24 1.28133 23.7187 0.781333 23.2187C0.281333 22.7187 0 22.04 0 21.3333V2.66667C0 1.96 0.281333 1.28133 0.781333 0.781333C1.28133 0.281333 1.96 0 2.66667 0H29.3333ZM30.6667 10.6667H1.33333V21.3333C1.33333 22.0693 1.93067 22.6667 2.66667 22.6667H29.3333C30.0693 22.6667 30.6667 22.0693 30.6667 21.3333V10.6667ZM10.6667 17.3333V18.6667H4V17.3333H10.6667ZM28 14.6667V16H24V14.6667H28ZM14.6667 14.6667V16H4V14.6667H14.6667ZM1.33333 6.66667V9.33333H30.6667V6.66667H1.33333ZM30.6667 5.33333V2.66667C30.6667 1.93067 30.0693 1.33333 29.3333 1.33333H2.66667C1.93067 1.33333 1.33333 1.93067 1.33333 2.66667V5.33333H30.6667Z" fill="white"/>
</svg>
