<svg width="32" height="30" viewBox="0 0 32 30" fill="none" xmlns="http://www.w3.org/2000/svg">
<path d="M5.84796 29.7761C4.85278 29.7761 3.93003 29.1309 3.62493 28.131L0.101313 16.5814C-0.272414 15.3563 0.420258 14.0557 1.64522 13.682L7.03214 12.0386V2.40491C7.03214 1.20232 8.01058 0.223877 9.21317 0.223877H29.8189C31.0215 0.223877 32 1.20232 32 2.40491V14.7633C32 15.9659 31.0215 16.9443 29.8189 16.9443H26.3162L27.5063 20.845C27.6872 21.4383 27.6265 22.0668 27.3348 22.6144C27.0432 23.1621 26.5558 23.5634 25.9624 23.7444L6.52435 29.6747C6.29945 29.7434 6.0718 29.7761 5.84796 29.7761ZM2.34732 20.8143L4.49823 27.8646C4.72511 28.6079 5.51441 29.0286 6.2579 28.8015L25.6959 22.8711C26.4394 22.6443 26.8597 21.855 26.6328 21.1116L25.3867 17.0268H22.5759L23.0143 18.4573C23.0497 18.5731 23.0378 18.6982 22.9811 18.8052C22.9243 18.9122 22.8274 18.9922 22.7116 19.0275L6.4294 24.0171C6.18882 24.0911 5.93302 23.9555 5.85922 23.7145L5.33911 22.017C5.30365 21.9012 5.31552 21.7761 5.37228 21.6692C5.42904 21.5622 5.52597 21.4821 5.64177 21.4468L20.0652 17.0266H14.6958L2.34732 20.8143ZM6.3457 22.1859L6.5983 23.0104L22.0077 18.2881L21.7551 17.4637L6.3457 22.1859ZM1.19069 17.0231L2.08087 19.941L11.5823 17.0266H9.35469C8.71117 17.0266 8.1279 16.7635 7.70685 16.3393C7.39886 16.0447 7.17655 15.6609 7.08235 15.23L1.19069 17.0231ZM7.03199 12.993L1.91151 14.5553C1.22386 14.765 0.812701 15.456 0.934284 16.1468L7.03199 14.291V12.993V12.993ZM8.34596 15.6879C8.573 15.9007 8.8781 16.0315 9.21302 16.0315H29.8189C30.5182 16.0315 31.087 15.4627 31.087 14.7634V2.40491C31.087 1.7057 30.5182 1.13689 29.8189 1.13689H9.21317C8.51396 1.13689 7.94515 1.7057 7.94515 2.40491V14.6189C7.9453 14.6259 7.9453 14.6329 7.94515 14.6399V14.7039C7.945 15.0863 8.09808 15.4336 8.34596 15.6879ZM29.3055 12.2959H26.11C25.8578 12.2959 25.6535 12.0915 25.6535 11.8394C25.6535 11.5872 25.8578 11.3829 26.11 11.3829H29.3055C29.5577 11.3829 29.762 11.5872 29.762 11.8394C29.762 12.0915 29.5575 12.2959 29.3055 12.2959ZM23.8781 12.2959H20.6826C20.4304 12.2959 20.2261 12.0915 20.2261 11.8394C20.2261 11.5872 20.4304 11.3829 20.6826 11.3829H23.8781C24.1303 11.3829 24.3346 11.5872 24.3346 11.8394C24.3346 12.0915 24.1303 12.2959 23.8781 12.2959ZM18.4509 12.2959H15.2553C15.0032 12.2959 14.7988 12.0915 14.7988 11.8394C14.7988 11.5872 15.0032 11.3829 15.2553 11.3829H18.4509C18.703 11.3829 18.9074 11.5872 18.9074 11.8394C18.9074 12.0915 18.7029 12.2959 18.4509 12.2959ZM13.0235 12.2959H9.82793C9.57579 12.2959 9.37143 12.0915 9.37143 11.8394C9.37143 11.5872 9.57579 11.3829 9.82793 11.3829H13.0235C13.2756 11.3829 13.48 11.5872 13.48 11.8394C13.48 12.0915 13.2755 12.2959 13.0235 12.2959ZM12.2657 9.04068H10.5857C9.91619 9.04068 9.37143 8.49592 9.37143 7.82638V6.45062C9.37143 5.78108 9.91619 5.23646 10.5857 5.23646H12.2658C12.9354 5.23646 13.48 5.78123 13.48 6.45062V7.82638C13.48 8.49592 12.9352 9.04068 12.2657 9.04068ZM10.5857 6.14948C10.4196 6.14948 10.2844 6.2846 10.2844 6.45062V7.82638C10.2844 7.99254 10.4196 8.12767 10.5857 8.12767H12.2658C12.4318 8.12767 12.567 7.99254 12.567 7.82638V6.45062C12.567 6.2846 12.4318 6.14948 12.2658 6.14948H10.5857V6.14948Z" fill="white"/>
</svg>
