<svg width="32" height="33" viewBox="0 0 32 33" fill="none" xmlns="http://www.w3.org/2000/svg">
<rect width="32" height="32" rx="4" fill="#BD1E51"/>
<circle cx="16" cy="16" r="10" fill="#3F0A1B"/>
<path d="M13.4463 28V14.464C13.4463 13.12 13.8383 12.048 14.6223 11.248C15.4223 10.432 16.5583 10.024 18.0303 10.024C18.5583 10.024 19.0543 10.08 19.5183 10.192C19.9983 10.304 20.3983 10.48 20.7183 10.72L19.9023 12.976C19.6783 12.8 19.4223 12.672 19.1343 12.592C18.8463 12.496 18.5503 12.448 18.2463 12.448C17.6223 12.448 17.1503 12.624 16.8303 12.976C16.5103 13.312 16.3503 13.824 16.3503 14.512V15.952L16.4463 17.296V28H13.4463ZM11.3343 17.68V15.28H19.8783V17.68H11.3343Z" fill="#BD1E51"/>
</svg>
