<svg width="24" height="25" viewBox="0 0 24 25" fill="none" xmlns="http://www.w3.org/2000/svg">
<path d="M5.11992 24.0157C6.28706 24.0157 7.4062 23.5689 8.23126 22.7736C9.05633 21.9779 9.52004 20.8991 9.52004 19.7742C9.52004 18.6491 9.05631 17.5702 8.23126 16.7749C7.4062 15.9795 6.28706 15.5325 5.11992 15.5325C3.95307 15.5325 2.83394 15.9795 2.00859 16.7749C1.18352 17.5702 0.720093 18.6491 0.720093 19.7742C0.720093 20.8991 1.18354 21.9779 2.00859 22.7736C2.83394 23.569 3.95307 24.0157 5.11992 24.0157ZM5.11992 17.8459V17.8462C5.65033 17.8462 6.15899 18.0493 6.53427 18.4108C6.90927 18.7726 7.11993 19.2629 7.11993 19.7742C7.11993 20.2856 6.90927 20.7759 6.53427 21.1374C6.159 21.4992 5.65035 21.7022 5.11992 21.7022C4.5895 21.7022 4.08086 21.4992 3.70586 21.1374C3.33058 20.7759 3.11993 20.2856 3.11993 19.7742C3.11993 19.2629 3.33058 18.7726 3.70586 18.4108C4.08086 18.0493 4.5895 17.8462 5.11992 17.8462V17.8459Z" fill="white"/>
<path d="M23.9197 5.8926C23.9197 4.76775 23.4563 3.68889 22.6312 2.89324C21.8059 2.09787 20.6867 1.65112 19.5199 1.65112C18.3527 1.65112 17.2336 2.09789 16.4085 2.89324C15.5835 3.68889 15.1198 4.76775 15.1198 5.8926C15.1198 7.01773 15.5835 8.09659 16.4085 8.89197C17.2336 9.68734 18.3527 10.1344 19.5199 10.1344C20.6867 10.1344 21.8059 9.68732 22.6312 8.89197C23.4563 8.09659 23.9197 7.01773 23.9197 5.8926ZM17.5199 5.8926C17.5199 5.38128 17.7305 4.89093 18.1055 4.52943C18.4808 4.16766 18.9895 3.96459 19.5199 3.96459C20.0503 3.96459 20.5589 4.16766 20.9339 4.52943C21.3092 4.89093 21.5199 5.38127 21.5199 5.8926C21.5199 6.40394 21.3092 6.89427 20.9339 7.25605C20.5589 7.61755 20.0503 7.82063 19.5199 7.82063C18.9895 7.82063 18.4808 7.61755 18.1055 7.25605C17.7305 6.89428 17.5199 6.40394 17.5199 5.8926Z" fill="white"/>
<path d="M12.272 20.5916L16.6722 24.8333L18.368 23.1985L16.0159 20.931H19.9198C21.087 20.931 22.2061 20.484 23.0312 19.6886C23.8565 18.893 24.32 17.8141 24.32 16.6893V12.4475H21.9198V16.6893C21.9198 17.2006 21.7092 17.6909 21.3342 18.0527C20.9592 18.4142 20.4503 18.6173 19.9198 18.6173H16.0159L18.368 16.3498L16.6721 14.715L12.272 18.9568C12.0474 19.1735 11.921 19.4675 11.921 19.7742C11.921 20.0808 12.0474 20.3748 12.272 20.5916L12.272 20.5916Z" fill="white"/>
<path d="M0.319946 8.97731V13.2191H2.72008V8.97731C2.72008 8.46599 2.93073 7.97564 3.30573 7.61387C3.68073 7.25236 4.18965 7.04929 4.72008 7.04929H8.62405L6.27192 9.31676L7.96777 10.9516L12.3679 6.70982C12.5925 6.49303 12.7189 6.19904 12.7189 5.89242C12.7189 5.58579 12.5925 5.29179 12.3679 5.07501L7.96777 0.833252L6.27192 2.46807L8.62405 4.73554H4.72008C3.55294 4.73554 2.4338 5.18258 1.60874 5.97794C0.783386 6.77358 0.31996 7.85244 0.31996 8.9773L0.319946 8.97731Z" fill="white"/>
</svg>
