<svg width="526" height="620" viewBox="0 0 526 620" fill="none" xmlns="http://www.w3.org/2000/svg">
<g clip-path="url(#clip0_178_728)">
<path d="M252.423 581.224L251.753 565.68C251.683 565.642 251.614 565.604 251.544 565.566C244.361 561.679 236.128 568.716 238.422 576.739C240.581 584.289 242.032 592.428 245.983 599.036C248.318 602.874 251.46 606.121 255.177 608.537C258.894 610.953 263.091 612.475 267.456 612.99L276.582 618.753C277.834 611.553 277.558 604.16 275.772 597.081C273.987 590.002 270.735 583.407 266.24 577.75C263.687 574.601 260.761 571.797 257.529 569.403C255.343 575.347 252.423 581.224 252.423 581.224Z" fill="#F3C43B"/>
<path d="M170.716 423.48C153.146 404.793 127.685 394.077 100.861 394.077L99.826 394.08C82.1576 394.087 64.8044 389.254 49.5413 380.076L47.9531 379.121L49.2323 377.762C56.1578 370.373 61.9406 361.93 66.3781 352.729C63.2264 355.759 59.4675 358.037 55.3673 359.403C51.2671 360.769 46.9259 361.189 42.6509 360.633C38.1376 360.078 33.8046 358.477 29.9772 355.948C26.1497 353.42 22.927 350.031 20.5509 346.035C11.1756 330.348 0 308.09 0 291.133C0.0145942 276.8 2.92469 262.627 8.5448 249.519C14.1649 236.41 22.3717 224.652 32.6422 214.996C39.1443 208.95 44.3378 201.558 47.8841 193.304C51.4304 185.049 53.2499 176.116 53.224 167.088L53.2188 165.803C53.217 153.916 54.6256 142.074 57.413 130.54L57.6961 129.376L58.8581 129.418C66.3515 129.68 73.8489 129.033 81.1954 127.488C74.3043 126.616 67.5631 124.767 61.1627 121.993L59.9126 121.472L60.3368 120.151C89.5814 101.478 155.595 111.147 193.911 20.7433C224.98 -52.5622 334.602 85.8166 334.602 165.803C334.602 173.965 326.77 184.75 332.633 190.144C396.017 248.459 352.283 285.905 338.495 323.584C335.223 332.524 342.317 342.338 342.317 352.01C342.317 353.651 342.276 355.346 342.196 357.045L342.074 359.659L339.96 358.209C335.78 355.384 331.904 352.106 328.401 348.43C332.035 357.057 333.748 366.413 333.414 375.813C333.079 385.212 330.705 394.414 326.466 402.742C319.823 415.67 313.397 424.926 307.366 430.25C288.045 447.301 263.138 456.096 237.738 454.838C212.338 453.579 188.363 442.362 170.716 423.48Z" fill="#F3C43B"/>
<path d="M276.834 617.986C277.266 617.985 277.683 617.824 278.009 617.532C278.335 617.24 278.548 616.836 278.609 616.395C278.686 615.843 286.156 560.278 279.447 486.43C273.25 418.23 253.351 319.998 193.741 239.322C193.598 239.128 193.419 238.966 193.216 238.843C193.012 238.72 192.786 238.64 192.553 238.608C192.319 238.575 192.081 238.59 191.853 238.652C191.625 238.714 191.411 238.822 191.223 238.97C191.035 239.117 190.878 239.301 190.759 239.512C190.64 239.722 190.563 239.955 190.532 240.196C190.5 240.437 190.515 240.682 190.576 240.917C190.636 241.152 190.741 241.373 190.885 241.566C249.98 321.546 269.719 419.057 275.872 486.776C282.542 560.194 275.13 615.325 275.054 615.873C275.018 616.136 275.038 616.404 275.11 616.658C275.183 616.912 275.308 617.148 275.477 617.348C275.646 617.548 275.854 617.709 276.088 617.819C276.323 617.929 276.577 617.986 276.834 617.986Z" fill="#3F3D56"/>
<path d="M228.189 353.12C228.568 353.12 228.937 352.997 229.244 352.767C229.551 352.537 229.78 352.213 229.897 351.841C230.014 351.469 230.015 351.069 229.897 350.697C229.78 350.325 229.552 350.001 229.245 349.771C229.029 349.609 207.222 333.405 174.62 321.095C144.483 309.716 98.6541 299.401 51.4743 314.886C51.2493 314.96 51.0405 315.078 50.86 315.235C50.6794 315.391 50.5306 315.583 50.422 315.799C50.3135 316.015 50.2473 316.251 50.2272 316.494C50.2072 316.736 50.2337 316.98 50.3053 317.212C50.3769 317.444 50.492 317.659 50.6443 317.845C50.7965 318.031 50.9828 318.184 51.1925 318.296C51.4022 318.408 51.6312 318.476 51.8664 318.496C52.1015 318.516 52.3383 318.488 52.563 318.414C98.7762 303.247 143.774 313.392 173.386 324.572C205.522 336.706 226.922 352.607 227.134 352.766C227.441 352.996 227.81 353.12 228.189 353.12Z" fill="#3F3D56"/>
<path d="M310.355 142.078C310.383 141.688 310.29 141.299 310.09 140.967C309.89 140.635 309.593 140.376 309.242 140.229C308.891 140.081 308.503 140.052 308.135 140.146C307.767 140.24 307.437 140.451 307.192 140.75C307.02 140.961 289.777 162.224 275.524 194.871C262.348 225.05 249.071 271.445 260.65 321.088C260.762 321.565 261.052 321.977 261.458 322.234C261.864 322.49 262.353 322.57 262.815 322.455C263.278 322.34 263.678 322.04 263.927 321.621C264.175 321.203 264.252 320.699 264.141 320.222C252.8 271.596 265.852 226.043 278.798 196.391C292.848 164.21 309.768 143.344 309.937 143.137C310.182 142.839 310.328 142.468 310.355 142.078Z" fill="#3F3D56"/>
<path d="M307.926 237.542C309.44 250.144 317.908 260.536 330.223 260.536C336.136 260.536 341.808 258.113 345.989 253.801C350.171 249.489 352.52 243.64 352.52 237.542C352.52 224.843 342.484 215.722 330.223 214.548C317.212 213.302 305.981 221.361 307.926 237.542Z" fill="#2F2E41"/>
<path d="M340.55 607.858L349.041 607.857L353.08 574.083L340.548 574.084L340.55 607.858Z" fill="#FFB6B6"/>
<path d="M340.251 616.992L366.362 616.991V616.651C366.362 613.871 365.291 611.206 363.385 609.24C361.479 607.275 358.894 606.17 356.199 606.17H356.199L351.429 602.439L342.53 606.171L340.251 606.171L340.251 616.992Z" fill="#2F2E41"/>
<path d="M307.104 607.858L315.595 607.857L319.634 574.083L307.102 574.084L307.104 607.858Z" fill="#FFB6B6"/>
<path d="M306.806 616.992L332.916 616.991V616.651C332.916 613.871 331.846 611.206 329.94 609.24C328.034 607.275 325.449 606.17 322.753 606.17H322.753L317.983 602.439L309.085 606.171L306.805 606.171L306.806 616.992Z" fill="#2F2E41"/>
<path d="M369.769 396.322L375.773 417.548L368.701 507.44C368.701 507.44 372.342 513.06 369.769 513.06C367.197 513.06 363.898 514.307 365.976 517.663C368.054 521.02 360.951 533.07 360.951 533.07L350.903 597.076L338.1 596.881C338.1 596.881 331.591 593.142 335.244 589.361C338.896 585.579 341.469 585.579 338.039 582.042C334.609 578.504 334.609 579.57 334.609 576.826C334.609 574.082 331.172 540.553 339.322 527.691L336.866 475.251L331.082 526.688L319.172 595.308L306.839 595.203C306.839 595.203 301.142 589.54 301.152 585.349C301.163 581.158 304.672 580.809 302.06 578.33C299.448 575.851 299.448 537.767 307.166 516.598C307.166 516.598 311.532 504.77 307.156 500.717C302.78 496.665 307.151 492.027 307.151 492.027C307.151 492.027 314.081 489.443 307.144 481.999C300.207 474.555 307.107 421.907 307.107 421.907C307.107 421.907 299.524 400.654 307.204 392.298C314.884 383.941 369.769 396.322 369.769 396.322Z" fill="#BD1E51"/>
<path d="M262.851 432.891L273.561 406.199L282 411.033L276.904 438.186C277.414 439.907 277.449 441.74 277.005 443.479C276.56 445.219 275.654 446.796 274.388 448.034C273.122 449.271 271.547 450.12 269.838 450.485C268.13 450.85 266.357 450.716 264.719 450.099C263.08 449.481 261.641 448.405 260.563 446.99C259.486 445.576 258.812 443.879 258.618 442.091C258.424 440.304 258.717 438.495 259.465 436.87C260.213 435.245 261.385 433.867 262.851 432.891Z" fill="#FFB6B6"/>
<path d="M442.578 221.816L426.281 245.312L419.124 238.631L430.054 213.375C429.935 211.58 430.303 209.787 431.118 208.196C431.933 206.606 433.162 205.281 434.667 204.371C436.172 203.462 437.894 203.003 439.638 203.047C441.382 203.091 443.079 203.635 444.539 204.62C446 205.604 447.165 206.988 447.904 208.618C448.643 210.248 448.926 212.058 448.722 213.844C448.518 215.631 447.835 217.323 446.75 218.732C445.664 220.14 444.22 221.208 442.578 221.816Z" fill="#FFB6B6"/>
<path d="M371.387 398.499C381.957 415.406 328.824 436.863 308.436 428.249C304.866 426.741 292.586 421.759 300.98 414.851C309.374 407.944 300.007 406.972 299.786 402.475C299.638 399.469 301.895 392.874 299.54 393.157C297.185 393.44 294.429 389.283 299.557 387.494C304.686 385.705 299.612 384.073 299.657 382.375C300.148 363.843 313.936 334.365 313.936 334.365L289.091 399.859C289.091 399.859 289.274 411.19 286.106 407.727C282.938 404.265 283.168 415.472 283.168 415.472C283.168 415.472 278.457 418.862 281.166 420.749C283.875 422.636 278.249 428.438 278.249 428.438L265.123 427.471C265.123 427.471 265.328 417.415 267.57 415.191C269.811 412.967 268.71 409.468 268.71 409.468C268.71 409.468 274.545 404.141 270.633 399.815C265.602 394.253 283.947 300.296 290.277 301.227C291.172 296.735 293.255 292.585 296.294 289.237C299.333 285.889 303.21 283.473 307.498 282.256L321.675 278.23L324.193 267.929H344.156L347.634 274.698L362.811 281.761C365.67 277.601 367.806 273.218 379.513 271.797C379.513 271.797 411.057 242.199 409.517 239.888C407.977 237.577 412.866 232.167 412.866 232.167C412.866 232.167 417.042 230.757 414.686 230.005C412.329 229.252 416.784 227.512 416.784 227.512C416.784 227.512 420.909 226.395 418.963 224.923C417.018 223.451 425.456 222.484 425.456 222.484L436.405 231.696L434.192 235.566C434.192 235.566 435.541 240.835 433.78 238.911C432.02 236.988 431.688 242.57 431.688 242.57C431.688 242.57 430.789 248.683 425.456 250.525C420.124 252.366 416.08 269.863 416.08 269.863C403.504 286.726 388.662 299.88 371.074 308.54C377.929 316.653 371.387 398.499 371.387 398.499Z" fill="#741242"/>
<path d="M332.687 261.901C343.607 261.901 352.46 252.772 352.46 241.511C352.46 230.25 343.607 221.121 332.687 221.121C321.768 221.121 312.915 230.25 312.915 241.511C312.915 252.772 321.768 261.901 332.687 261.901Z" fill="#FFB6B6"/>
<path d="M312.214 243.732C312.84 248.163 316.501 254.345 315.644 254.345C314.786 254.345 308.689 236.08 314.786 234.889C319.209 234.025 320.198 234.782 324.331 232.934L323.748 233.5C326.484 235.552 330.291 234.287 333.413 232.952C336.543 231.625 340.342 230.361 343.086 232.403C344.81 233.686 345.539 235.914 346.611 237.807C347.683 239.708 349.664 241.504 351.705 240.92C353.343 240.451 354.286 238.559 354.278 236.808C354.269 235.057 352.058 233.391 352.803 231.82C355.01 227.164 353.025 223.991 348.215 221.8C346.465 221.526 344.716 221.246 342.966 220.96C343.883 219.65 344.995 218.498 346.26 217.546C345.725 216.133 344.801 214.912 343.601 214.035C342.203 213.177 340.471 213.239 338.85 213.327C335.231 213.522 331.615 213.717 328.002 213.911C325.326 214.053 322.556 214.221 320.163 215.485C317.179 217.068 315.224 220.155 313.8 223.294C310.61 230.352 311.116 236.029 312.214 243.732Z" fill="#2F2E41"/>
<path d="M229.963 619.289L424.419 619.561C424.69 619.561 424.95 619.45 425.141 619.253C425.333 619.055 425.44 618.787 425.44 618.508C425.44 618.229 425.333 617.961 425.141 617.764C424.95 617.566 424.69 617.455 424.419 617.455L229.963 617.183C229.692 617.183 229.432 617.294 229.24 617.492C229.049 617.689 228.941 617.957 228.941 618.236C228.941 618.516 229.049 618.784 229.24 618.981C229.432 619.178 229.692 619.289 229.963 619.289Z" fill="#CACACA"/>
<path d="M159.632 527.499C159.991 524.958 157.41 522.467 153.869 521.936C150.327 521.405 147.165 523.034 146.807 525.574C146.448 528.115 149.029 530.606 152.57 531.137C156.112 531.669 159.274 530.04 159.632 527.499Z" fill="#E6E6E6"/>
<path d="M201.801 523.256C202.159 520.715 199.579 518.224 196.037 517.693C192.495 517.161 189.334 518.79 188.975 521.331C188.617 523.872 191.197 526.362 194.739 526.894C198.281 527.425 201.443 525.796 201.801 523.256Z" fill="#3F3D56"/>
<path d="M148.085 492.293C148.444 489.753 145.863 487.262 142.322 486.731C138.78 486.199 135.618 487.828 135.26 490.369C134.901 492.91 137.482 495.4 141.023 495.932C144.565 496.463 147.727 494.834 148.085 492.293Z" fill="#FF6584"/>
<path d="M129.762 477.873C129.779 475.54 128.517 473.639 126.944 473.627C125.37 473.615 124.081 475.496 124.064 477.828C124.047 480.161 125.309 482.062 126.882 482.074C128.456 482.086 129.745 480.205 129.762 477.873Z" fill="#E6E6E6"/>
<path d="M123.548 451.013C123.565 448.68 122.304 446.779 120.73 446.767C119.157 446.755 117.867 448.636 117.85 450.968C117.833 453.301 119.095 455.202 120.668 455.214C122.242 455.226 123.531 453.345 123.548 451.013Z" fill="#3F3D56"/>
<path d="M171.869 498.284C171.886 495.952 170.624 494.051 169.051 494.039C167.477 494.026 166.188 495.907 166.171 498.24C166.154 500.573 167.415 502.473 168.989 502.486C170.562 502.498 171.852 500.617 171.869 498.284Z" fill="#E6E6E6"/>
<path d="M151.491 508.777C151.508 506.444 150.247 504.543 148.673 504.531C147.1 504.519 145.81 506.4 145.793 508.732C145.776 511.065 147.038 512.966 148.611 512.978C150.185 512.99 151.474 511.109 151.491 508.777Z" fill="#FF6584"/>
<path d="M179.858 528.169C179.875 525.837 178.613 523.936 177.04 523.923C175.466 523.911 174.177 525.792 174.16 528.125C174.142 530.457 175.404 532.358 176.978 532.37C178.551 532.383 179.841 530.502 179.858 528.169Z" fill="#3F3D56"/>
<path d="M483.798 391.305C484.157 388.764 481.576 386.273 478.034 385.742C474.493 385.21 471.331 386.839 470.972 389.38C470.614 391.921 473.194 394.412 476.736 394.943C480.278 395.474 483.44 393.845 483.798 391.305Z" fill="#E6E6E6"/>
<path d="M525.967 387.061C526.325 384.52 523.745 382.03 520.203 381.499C516.661 380.967 513.499 382.596 513.141 385.137C512.782 387.678 515.363 390.168 518.905 390.7C522.446 391.231 525.608 389.602 525.967 387.061Z" fill="#3F3D56"/>
<path d="M472.25 356.099C472.609 353.558 470.028 351.068 466.487 350.536C462.945 350.005 459.783 351.634 459.425 354.175C459.066 356.716 461.647 359.206 465.188 359.738C468.73 360.269 471.892 358.64 472.25 356.099Z" fill="#FF6584"/>
<path d="M453.928 341.678C453.945 339.346 452.683 337.445 451.11 337.433C449.536 337.42 448.247 339.301 448.23 341.634C448.213 343.967 449.474 345.867 451.048 345.88C452.621 345.892 453.911 344.011 453.928 341.678Z" fill="#E6E6E6"/>
<path d="M447.714 314.818C447.731 312.486 446.469 310.585 444.896 310.573C443.322 310.56 442.033 312.441 442.016 314.774C441.999 317.107 443.261 319.007 444.834 319.02C446.408 319.032 447.697 317.151 447.714 314.818Z" fill="#3F3D56"/>
<path d="M496.035 362.09C496.052 359.758 494.79 357.857 493.217 357.844C491.643 357.832 490.354 359.713 490.337 362.046C490.319 364.378 491.581 366.279 493.155 366.291C494.728 366.304 496.018 364.423 496.035 362.09Z" fill="#E6E6E6"/>
<path d="M475.657 372.582C475.674 370.25 474.412 368.349 472.839 368.337C471.265 368.324 469.976 370.205 469.959 372.538C469.942 374.871 471.203 376.771 472.777 376.784C474.35 376.796 475.64 374.915 475.657 372.582Z" fill="#FF6584"/>
<path d="M504.023 391.975C504.041 389.642 502.779 387.741 501.205 387.729C499.632 387.717 498.342 389.598 498.325 391.93C498.308 394.263 499.57 396.164 501.143 396.176C502.717 396.188 504.006 394.307 504.023 391.975Z" fill="#3F3D56"/>
<path d="M326.861 139.257C327.219 136.716 324.639 134.225 321.097 133.694C317.555 133.163 314.393 134.791 314.035 137.332C313.677 139.873 316.257 142.364 319.799 142.895C323.341 143.426 326.502 141.798 326.861 139.257Z" fill="white"/>
<path d="M369.029 135.013C369.388 132.473 366.807 129.982 363.266 129.451C359.724 128.919 356.562 130.548 356.204 133.089C355.845 135.63 358.426 138.12 361.967 138.652C365.509 139.183 368.671 137.554 369.029 135.013Z" fill="#3F3D56"/>
<path d="M315.314 104.051C315.672 101.51 313.092 99.0199 309.55 98.4884C306.008 97.957 302.846 99.5859 302.488 102.127C302.13 104.668 304.71 107.158 308.252 107.69C311.794 108.221 314.955 106.592 315.314 104.051Z" fill="#FF6584"/>
<path d="M296.99 89.6306C297.008 87.298 295.746 85.3971 294.172 85.3848C292.599 85.3726 291.309 87.2535 291.292 89.5861C291.275 91.9187 292.537 93.8196 294.11 93.8318C295.684 93.8441 296.973 91.9631 296.99 89.6306Z" fill="#E6E6E6"/>
<path d="M290.777 62.7706C290.794 60.438 289.532 58.5371 287.959 58.5248C286.385 58.5126 285.096 60.3936 285.079 62.7261C285.061 65.0587 286.323 66.9596 287.897 66.9719C289.47 66.9841 290.76 65.1031 290.777 62.7706Z" fill="#3F3D56"/>
<path d="M339.097 110.042C339.114 107.71 337.853 105.809 336.279 105.797C334.706 105.784 333.416 107.665 333.399 109.998C333.382 112.33 334.644 114.231 336.217 114.244C337.791 114.256 339.08 112.375 339.097 110.042Z" fill="#E6E6E6"/>
<path d="M318.72 120.535C318.737 118.202 317.475 116.301 315.901 116.289C314.328 116.277 313.039 118.158 313.021 120.49C313.004 122.823 314.266 124.724 315.84 124.736C317.413 124.748 318.702 122.867 318.72 120.535Z" fill="#FF6584"/>
<path d="M347.086 139.927C347.103 137.594 345.841 135.694 344.268 135.681C342.694 135.669 341.405 137.55 341.388 139.883C341.371 142.215 342.632 144.116 344.206 144.128C345.779 144.141 347.069 142.26 347.086 139.927Z" fill="#3F3D56"/>
</g>
<defs>
<clipPath id="clip0_178_728">
<rect width="526" height="619.561" fill="white"/>
</clipPath>
</defs>
</svg>
