<svg width="32" height="33" viewBox="0 0 32 33" fill="none" xmlns="http://www.w3.org/2000/svg">
<path d="M28.5714 0.5H3.42857C1.53571 0.5 0 2.03571 0 3.92857V29.0714C0 30.9643 1.53571 32.5 3.42857 32.5H28.5714C30.4643 32.5 32 30.9643 32 29.0714V3.92857C32 2.03571 30.4643 0.5 28.5714 0.5ZM25.0786 11.8429C25.0929 12.0429 25.0929 12.25 25.0929 12.45C25.0929 18.6429 20.3786 25.7786 11.7643 25.7786C9.10714 25.7786 6.64286 25.0071 4.57143 23.6786C4.95 23.7214 5.31429 23.7357 5.7 23.7357C7.89286 23.7357 9.90714 22.9929 11.5143 21.7357C9.45714 21.6929 7.72857 20.3429 7.13571 18.4857C7.85714 18.5929 8.50714 18.5929 9.25 18.4C7.10714 17.9643 5.5 16.0786 5.5 13.8V13.7429C6.12143 14.0929 6.85 14.3071 7.61429 14.3357C6.97173 13.9083 6.44499 13.3285 6.08105 12.648C5.71711 11.9675 5.52731 11.2074 5.52857 10.4357C5.52857 9.56429 5.75714 8.76429 6.16429 8.07143C8.47143 10.9143 11.9357 12.7714 15.8214 12.9714C15.1571 9.79286 17.5357 7.21429 20.3929 7.21429C21.7429 7.21429 22.9571 7.77857 23.8143 8.69286C24.8714 8.49286 25.8857 8.1 26.7857 7.56429C26.4357 8.65 25.7 9.56429 24.7286 10.1429C25.6714 10.0429 26.5857 9.77857 27.4286 9.41429C26.7929 10.35 25.9929 11.1786 25.0786 11.8429Z" fill="#BD1E51"/>
</svg>
